<?xml version="1.0" standalone="yes"?>
<svg xmlns="http://www.w3.org/2000/svg" width="200" height="200">
<path style="fill:#ffffff; stroke:none;" d="M0 0L0 200L200 200L200 0L0 0z"/>
<path style="fill:#ffcefc; stroke:none;" d="M31 64C32.2483 64.6848 32.5485 64.7488 34 65C32.7516 64.3152 32.4516 64.2512 31 64z"/>
<path style="fill:#ff9ef9; stroke:none;" d="M34 64.7176C14.5321 64.9842 14.3982 94.9185 34 94.9198C53.9508 94.921 54.0194 64.4434 34 64.7176z"/>
<path style="fill:#ffcefc; stroke:none;" d="M35 64C36.2483 64.6848 36.5485 64.7488 38 65C36.7516 64.3152 36.4516 64.2512 35 64z"/>
<path style="fill:#76deaa; stroke:none;" d="M67 65C68.2484 65.6848 68.5484 65.7488 70 66C68.7517 65.3152 68.4515 65.2512 67 65z"/>
<path style="fill:#8de4b8; stroke:none;" d="M66 66L67 67L66 66z"/>
<path style="fill:#48d48e; stroke:none;" d="M53 93L84 93C83.2441 85.6593 78.3147 79.2165 74.6034 73.0008C73.3814 70.9541 71.7308 66.6358 68.8302 66.6358C66.0128 66.6358 64.2694 69.9557 63.0147 72.0046C59.153 78.3109 53.8088 85.5459 53 93z"/>
<path style="fill:#ffcefc; stroke:none;" d="M32 69C33.769 69.7789 35.0359 69.9124 37 70C35.231 69.2211 33.9641 69.0876 32 69z"/>
<path style="fill:#baeed4; stroke:none;" d="M64 69L65 70L64 69z"/>
<path style="fill:#a3e9c6; stroke:none;" d="M72 69L73 70L72 69z"/>
<path style="fill:#ffffff; stroke:none;" d="M29.044 71.0278C17.7623 77.0443 27.3736 94.8099 38.9846 88.821C51.4807 82.3755 40.9212 64.6936 29.044 71.0278z"/>
<path style="fill:#98e6bf; stroke:none;" d="M63 71L64 72L63 71z"/>
<path style="fill:#8ce4b8; stroke:none;" d="M73 71L74 72L73 71z"/>
<path style="fill:#ffffff; stroke:none;" d="M68 73L60 88L77 88C74.7464 82.7701 71.903 77.1682 68 73z"/>
<path style="fill:#a3e9c6; stroke:none;" d="M67 74L68 75L67 74M69 74L70 75L69 74z"/>
<path style="fill:#baeed4; stroke:none;" d="M75 74L76 75L75 74z"/>
<path style="fill:#ffb6fa; stroke:none;" d="M49 76L49 84C50.1614 81.2301 50.1614 78.7699 49 76z"/>
<path style="fill:#aeeccd; stroke:none;" d="M60 76L61 77L60 76z"/>
<path style="fill:#baeed4; stroke:none;" d="M66 76L67 77L66 76z"/>
<path style="fill:#a3e9c6; stroke:none;" d="M76 76L77 77L76 76z"/>
<path style="fill:#8ce4b8; stroke:none;" d="M59 78L60 79L59 78z"/>
<path style="fill:#98e6bf; stroke:none;" d="M72 79L73 80L72 79z"/>
<path style="fill:#a3e9c6; stroke:none;" d="M63 81L64 82L63 81z"/>
<path style="fill:#aeeccd; stroke:none;" d="M73 81L74 82L73 81M79 81L80 82L79 81z"/>
<path style="fill:#a3e9c6; stroke:none;" d="M56 83L57 84L56 83z"/>
<path style="fill:#baeed4; stroke:none;" d="M62 83L63 84L62 83z"/>
<path style="fill:#8ce4b8; stroke:none;" d="M80 83L81 84L80 83M55 85L56 86L55 85M60 86L61 87L60 86z"/>
<path style="fill:#a3e9c6; stroke:none;" d="M76 86L77 87L76 86z"/>
<path style="fill:#baeed4; stroke:none;" d="M53 88L54 89L53 88z"/>
<path style="fill:#a4e9c6; stroke:none;" d="M60 88C64.974 90.0872 71.638 89 77 89C72.026 86.9128 65.362 88 60 88z"/>
<path style="fill:#a3e9c6; stroke:none;" d="M83 88L84 89L83 88M52.3333 90.6667C52.2778 90.7222 52.2222 91.7778 52.6667 91.3333C52.7223 91.2777 52.7778 90.2222 52.3333 90.6667z"/>
<path style="fill:#8ce4b8; stroke:none;" d="M84.3333 90.6667C84.2778 90.7222 84.2222 91.7778 84.6667 91.3333C84.7222 91.2778 84.7778 90.2222 84.3333 90.6667z"/>
<path style="fill:#a3e9c6; stroke:none;" d="M54 93C59.959 95.5005 68.5639 94 75 94C69.041 91.4995 60.4361 93 54 93z"/>
<path style="fill:#7dd5d0; stroke:none;" d="M75 93C76.506 93.683 77.3148 93.8259 79 94C77.4939 93.317 76.6852 93.1741 75 93z"/>
<path style="fill:#a3e9c6; stroke:none;" d="M79 93C80.506 93.683 81.3148 93.8259 83 94C81.4939 93.317 80.6852 93.1741 79 93z"/>
<path style="fill:#ffc8fb; stroke:none;" d="M28.6667 94.3333C28.2222 94.7777 29.2778 94.7222 29.3333 94.6667C29.7778 94.2222 28.7222 94.2778 28.6667 94.3333z"/>
<path style="fill:#ffd4fc; stroke:none;" d="M38.6667 94.3333C38.2222 94.7778 39.2778 94.7222 39.3333 94.6667C39.7778 94.2222 38.7222 94.2778 38.6667 94.3333z"/>
<path style="fill:#aedff5; stroke:none;" d="M68 94C69.2483 94.6848 69.5484 94.7488 71 95C69.7516 94.3152 69.4516 94.2512 68 94z"/>
<path style="fill:#50baea; stroke:none;" d="M71.6667 94.3333C71.2222 94.7778 72.2778 94.7222 72.3333 94.6667C72.7778 94.2222 71.7222 94.2778 71.6667 94.3333z"/>
<path style="fill:#27aae6; stroke:none;" d="M53 103C57.9504 101.09 62.7604 99.3778 68 98.4244C72.1758 97.6645 76.5746 97.7842 79 94C71.4825 94.1552 55.5237 94.6123 53 103z"/>
<path style="fill:#93d4f2; stroke:none;" d="M64.6667 95.3333C64.2222 95.7778 65.2778 95.7222 65.3333 95.6667C65.7778 95.2222 64.7222 95.2778 64.6667 95.3333z"/>
<path style="fill:#50baea; stroke:none;" d="M61.6667 96.3333C61.2222 96.7778 62.2778 96.7222 62.3333 96.6667C62.7777 96.2223 61.7222 96.2778 61.6667 96.3333z"/>
<path style="fill:#bbe4f7; stroke:none;" d="M78 96L79 97L78 96z"/>
<path style="fill:#a0d9f4; stroke:none;" d="M73.6667 97.3333C73.2222 97.7778 74.2778 97.7222 74.3333 97.6667C74.7778 97.2222 73.7222 97.2778 73.6667 97.3333z"/>
<path style="fill:#c9e9f8; stroke:none;" d="M75.6667 97.3333C75.2222 97.7778 76.2778 97.7222 76.3333 97.6667C76.7778 97.2222 75.7222 97.2778 75.6667 97.3333z"/>
<path style="fill:#a0d9f4; stroke:none;" d="M67.6667 98.3333C67.2222 98.7778 68.2778 98.7222 68.3333 98.6667C68.7778 98.2222 67.7222 98.2778 67.6667 98.3333z"/>
<path style="fill:#99b0f5; stroke:none;" d="M21 99C28.1686 102.008 39.239 100 47 100C39.8314 96.9919 28.761 99 21 99z"/>
<path style="fill:#a0d9f4; stroke:none;" d="M53 99L54 100L53 99z"/>
<path style="fill:#85cff0; stroke:none;" d="M62.6667 99.3333C62.2222 99.7778 63.2778 99.7222 63.3333 99.6667C63.7777 99.2223 62.7222 99.2778 62.6667 99.3333z"/>
<path style="fill:#7796f2; stroke:none;" d="M20 100L20 119C20.0046 121.236 19.532 124.508 21.0278 126.397C22.7448 128.564 26.5803 127.995 29 128L48 128L48 100L20 100z"/>
<path style="fill:#bbe4f7; stroke:none;" d="M59.6667 100.333C59.2222 100.778 60.2778 100.722 60.3333 100.667C60.7777 100.222 59.7222 100.278 59.6667 100.333z"/>
<path style="fill:#85cff0; stroke:none;" d="M65 100C65.5451 101.635 65.3648 101.455 67 102L67 100L65 100z"/>
<path style="fill:#dde4fb; stroke:none;" d="M19 101L19 126C21.4129 120.25 21.4129 106.75 19 101z"/>
<path style="fill:#99b0f5; stroke:none;" d="M48 101L48 127C50.477 121.097 50.477 106.903 48 101z"/>
<path style="fill:#93d4f2; stroke:none;" d="M52.3333 101.667C52.2778 101.722 52.2222 102.778 52.6667 102.333C52.7223 102.278 52.7778 101.222 52.3333 101.667z"/>
<path style="fill:#78c9ef; stroke:none;" d="M56 101L57 102L56 101z"/>
<path style="fill:#aedff5; stroke:none;" d="M64 101L65 102L64 101z"/>
<path style="fill:#27aae6; stroke:none;" d="M65 101C62.0044 108.097 59.04 126.196 72 120C68.9603 117.473 66.1038 115.118 65.3588 111C64.7354 107.555 66.1847 104.303 65 101z"/>
<path style="fill:#93d4f2; stroke:none;" d="M54 102L55 103L54 102z"/>
<path style="fill:#27aae6; stroke:none;" d="M93 102C91.602 106.833 87.7092 107.372 85 111L92 109C91.9382 114.219 89.9665 119.605 85 114L83 114C80.5457 116.297 79.4543 116.297 77 114L75 114C73.5026 121.195 77.7604 120.617 83 118C85.6595 122.052 96.1717 121.597 100 119C105.308 122.693 109.022 118.263 114 116C113.52 118.36 113.481 119.663 114 122L116 122L117 121L116 116C118.963 116.289 119.876 116.067 122 114C119.156 113.505 117.694 113.902 115 115C113.423 112.835 112.233 113.804 110 115C108.455 112.631 107.786 112.542 105 113L109 118C106.566 117.349 105.717 116.84 104 115C102.224 115.767 100.022 117.299 98.0039 116.982C93.911 116.34 93.0668 111.263 95.6682 108.563C99.0167 105.088 104.947 106.548 108 103C103.536 103.576 99.2867 104.638 95 106L95 102L93 102z"/>
<path style="fill:#78c9ef; stroke:none;" d="M92 103L92 106C92.6961 104.446 92.6961 104.554 92 103z"/>
<path style="fill:#c9e9f8; stroke:none;" d="M95.3333 103.667C95.2778 103.722 95.2222 104.778 95.6667 104.333C95.7222 104.278 95.7778 103.222 95.3333 103.667z"/>
<path style="fill:#78caef; stroke:none;" d="M102 103C103.248 103.685 103.548 103.749 105 104C103.752 103.315 103.452 103.251 102 103z"/>
<path style="fill:#c9e9f8; stroke:none;" d="M108.333 103.667C108.278 103.722 108.222 104.778 108.667 104.333C108.722 104.278 108.778 103.222 108.333 103.667z"/>
<path style="fill:#bbcaf8; stroke:none;" d="M24 104L24 123C26.0196 118.187 26.0196 108.813 24 104z"/>
<path style="fill:#dde4fb; stroke:none;" d="M25 104C30.2224 106.191 37.3677 105 43 105C37.7776 102.809 30.6322 104 25 104z"/>
<path style="fill:#bbcaf8; stroke:none;" d="M43 104L43 123C45.0196 118.187 45.0196 108.813 43 104z"/>
<path style="fill:#aedff5; stroke:none;" d="M63 104L64 105L63 104z"/>
<path style="fill:#86cff1; stroke:none;" d="M99 104L100 105L99 104z"/>
<path style="fill:#ffffff; stroke:none;" d="M25 105L25 123L43 123L43 105L25 105z"/>
<path style="fill:#5dbfec; stroke:none;" d="M65 105L65 108C65.6961 106.446 65.6961 106.554 65 105z"/>
<path style="fill:#78caef; stroke:none;" d="M95.6667 105.333C95.2222 105.778 96.2778 105.722 96.3333 105.667C96.7778 105.222 95.7222 105.278 95.6667 105.333z"/>
<path style="fill:#78c9ef; stroke:none;" d="M102 105C103.769 105.779 105.036 105.912 107 106C105.231 105.221 103.964 105.088 102 105z"/>
<path style="fill:#6bc4ed; stroke:none;" d="M89.6667 107.333C89.2222 107.778 90.2778 107.722 90.3333 107.667C90.7778 107.222 89.7222 107.278 89.6667 107.333z"/>
<path style="fill:#d6effa; stroke:none;" d="M95.6667 107.333C95.2222 107.778 96.2778 107.722 96.3333 107.667C96.7778 107.222 95.7222 107.278 95.6667 107.333z"/>
<path style="fill:#93d4f2; stroke:none;" d="M62.3333 108.667C62.2778 108.722 62.2222 109.778 62.6667 109.333C62.7222 109.278 62.7778 108.222 62.3333 108.667M65 108L65 111C65.6961 109.446 65.6961 109.554 65 108z"/>
<path style="fill:#6bc4ed; stroke:none;" d="M86.6667 108.333C86.2222 108.778 87.2778 108.722 87.3333 108.667C87.7778 108.222 86.7222 108.278 86.6667 108.333z"/>
<path style="fill:#85cff0; stroke:none;" d="M84.3333 109.667C84.2778 109.722 84.2222 110.778 84.6667 110.333C84.7222 110.278 84.7778 109.222 84.3333 109.667z"/>
<path style="fill:#bbe4f7; stroke:none;" d="M89 109L90 110L89 109z"/>
<path style="fill:#93d4f2; stroke:none;" d="M91.3333 109.667C91.2778 109.722 91.2222 110.778 91.6667 110.333C91.7222 110.278 91.7778 109.222 91.3333 109.667M94 109L95 110L94 109z"/>
<path style="fill:#5dbfec; stroke:none;" d="M62.3333 110.667C62.2778 110.722 62.2222 111.778 62.6667 111.333C62.7223 111.278 62.7777 110.222 62.3333 110.667z"/>
<path style="fill:#a0d9f4; stroke:none;" d="M86 110L87 111L86 110z"/>
<path style="fill:#5dbfec; stroke:none;" d="M65.3333 111.667C65.2778 111.722 65.2222 112.778 65.6667 112.333C65.7222 112.278 65.7778 111.222 65.3333 111.667M91 111L91 117C91.9511 114.715 91.9511 113.285 91 111M93 111L93 114C93.6961 112.446 93.6961 112.554 93 111z"/>
<path style="fill:#aedff5; stroke:none;" d="M105 112L106 113L105 112z"/>
<path style="fill:#a0d9f4; stroke:none;" d="M109 112L110 113L109 112z"/>
<path style="fill:#a1daf4; stroke:none;" d="M113.667 112.333C113.222 112.778 114.278 112.722 114.333 112.667C114.778 112.222 113.722 112.278 113.667 112.333z"/>
<path style="fill:#93d4f2; stroke:none;" d="M75.6667 113.333C75.2222 113.778 76.2778 113.722 76.3333 113.667C76.7778 113.222 75.7222 113.278 75.6667 113.333z"/>
<path style="fill:#85cff0; stroke:none;" d="M83.6667 113.333C83.2222 113.778 84.2778 113.722 84.3333 113.667C84.7778 113.222 83.7222 113.278 83.6667 113.333z"/>
<path style="fill:#6ac4ed; stroke:none;" d="M115 113L115 115L117 115C116.455 113.365 116.635 113.545 115 113z"/>
<path style="fill:#bbe4f7; stroke:none;" d="M117 113L118 114L117 113z"/>
<path style="fill:#78c9ef; stroke:none;" d="M66.3333 114.667C66.2778 114.722 66.2222 115.778 66.6667 115.333C66.7222 115.278 66.7778 114.222 66.3333 114.667z"/>
<path style="fill:#4fb9ea; stroke:none;" d="M103 114L104 117C105.015 115.861 105.309 115.388 106 114L103 114z"/>
<path style="fill:#50baea; stroke:none;" d="M110.667 114.333C110.222 114.778 111.278 114.722 111.333 114.667C111.778 114.222 110.722 114.278 110.667 114.333z"/>
<path style="fill:#85cff0; stroke:none;" d="M74 115L75 116L74 115z"/>
<path style="fill:#aedff5; stroke:none;" d="M77 115L78 116L77 115z"/>
<path style="fill:#93d4f2; stroke:none;" d="M82 115L83 116L82 115z"/>
<path style="fill:#bbe4f7; stroke:none;" d="M94 115L95 116L94 115z"/>
<path style="fill:#ffffff; stroke:none;" d="M105 115C106.226 117.035 106.703 117.326 109 118C107.659 116.726 106.597 115.959 105 115z"/>
<path style="fill:#a0d9f4; stroke:none;" d="M121 115L122 116L121 115z"/>
<path style="fill:#bbe4f7; stroke:none;" d="M78 116L79 117L78 116z"/>
<path style="fill:#a1daf4; stroke:none;" d="M81 116L82 117L81 116z"/>
<path style="fill:#6bc4ed; stroke:none;" d="M101 116L102 117L101 116z"/>
<path style="fill:#78c9ef; stroke:none;" d="M107.667 116.333C107.222 116.778 108.278 116.722 108.333 116.667C108.778 116.222 107.722 116.278 107.667 116.333z"/>
<path style="fill:#5dbfec; stroke:none;" d="M113.333 116.667C113.278 116.722 113.222 117.778 113.667 117.333C113.722 117.278 113.778 116.222 113.333 116.667z"/>
<path style="fill:#85cff0; stroke:none;" d="M117 116L118 117L117 116M62.3333 117.667C62.2778 117.722 62.2222 118.778 62.6667 118.333C62.7222 118.278 62.7778 117.222 62.3333 117.667z"/>
<path style="fill:#c9e9f8; stroke:none;" d="M73 117L73 120C73.6961 118.446 73.6961 118.554 73 117z"/>
<path style="fill:#78caef; stroke:none;" d="M87 117C88.2484 117.685 88.5484 117.749 90 118C88.7516 117.315 88.4516 117.251 87 117M105 117L106 118L105 117z"/>
<path style="fill:#c9e9f8; stroke:none;" d="M69 118C70.2484 118.685 70.5484 118.749 72 119C70.7517 118.315 70.4516 118.251 69 118z"/>
<path style="fill:#85cff0; stroke:none;" d="M81 118C81.5451 119.635 81.3648 119.455 83 120L83 118L81 118z"/>
<path style="fill:#aedff5; stroke:none;" d="M109 118L110 119L109 118z"/>
<path style="fill:#bbe4f7; stroke:none;" d="M116 118L117 119L116 118M80 119L81 120L80 119z"/>
<path style="fill:#a0d9f4; stroke:none;" d="M100 119L101 120L100 119z"/>
<path style="fill:#aedff5; stroke:none;" d="M108 119L109 120L108 119z"/>
<path style="fill:#85cff0; stroke:none;" d="M112 119C112.406 121.092 112.217 121.02 114 122C113.309 120.612 113.015 120.139 112 119M78 120L79 121L78 120M83 120L84 121L83 120z"/>
<path style="fill:#bbe4f7; stroke:none;" d="M88 120L89 121L88 120z"/>
<path style="fill:#aedff5; stroke:none;" d="M92 120L93 121L92 120z"/>
<path style="fill:#93d4f2; stroke:none;" d="M98 120L99 121L98 120z"/>
<path style="fill:#aedff5; stroke:none;" d="M107 120L108 121L107 120z"/>
<path style="fill:#c9e9f8; stroke:none;" d="M84 121C85.2484 121.685 85.5484 121.749 87 122C85.7517 121.315 85.4516 121.251 84 121z"/>
<path style="fill:#aedff5; stroke:none;" d="M94 121C95.2484 121.685 95.5484 121.749 97 122C95.7517 121.315 95.4516 121.251 94 121z"/>
<path style="fill:#5dbfec; stroke:none;" d="M102 121C103.506 121.683 104.315 121.826 106 122C104.494 121.317 103.685 121.174 102 121z"/>
<path style="fill:#bbe4f7; stroke:none;" d="M116 121L117 122L116 121z"/>
<path style="fill:#c8effb; stroke:none;" d="M98 122C99.2484 122.685 99.5484 122.749 101 123C99.7517 122.315 99.4516 122.251 98 122z"/>
<path style="fill:#99b0f5; stroke:none;" d="M25 123C30.2224 125.191 37.3677 124 43 124C37.7776 121.809 30.6322 123 25 123z"/>
<path style="fill:#58d1f3; stroke:none;" d="M98 123L98 137C99.6668 133.028 99.6668 126.972 98 123z"/>
<path style="fill:#21c2f0; stroke:none;" d="M99 123C99 126.307 100.013 141.709 92.3364 136.928C87.4284 133.872 94.3426 130.415 97 130L97 128C95.3924 128.019 93.6036 127.872 92.034 128.318C80.4033 131.62 95.715 147.574 100.397 136.852C101.048 135.36 100.965 133.589 100.995 132C101.052 129.002 101 125.998 101 123L99 123z"/>
<path style="fill:#c7effb; stroke:none;" d="M101 123L101 137C102.667 133.028 102.667 126.972 101 123z"/>
<path style="fill:#21c2f0; stroke:none;" d="M53 124L53 140C56.8153 140 62.2802 140.944 65.6559 138.821C70.4883 135.781 69.7351 127.653 64.9414 125.028C61.5943 123.195 56.6865 124 53 124z"/>
<path style="fill:#b9ebfa; stroke:none;" d="M65 124L66 125L65 124z"/>
<path style="fill:#c7effb; stroke:none;" d="M52 125L52 139C53.6668 135.028 53.6668 128.972 52 125z"/>
<path style="fill:#75d9f5; stroke:none;" d="M66 125L67 126L66 125z"/>
<path style="fill:#58d1f3; stroke:none;" d="M55 137C56.3274 133.837 55.9996 130.414 56 127L63 127C55.0564 123.703 55.0006 131.208 55 137z"/>
<path style="fill:#75d9f5; stroke:none;" d="M67 126L68 127L67 126z"/>
<path style="fill:#ffffff; stroke:none;" d="M56 127L56 137C58.4117 136.991 61.5668 137.392 63.6821 135.972C66.3731 134.166 66.3731 129.834 63.6821 128.028C61.5668 126.608 58.4117 127.009 56 127z"/>
<path style="fill:#90e0f7; stroke:none;" d="M64 127L65 128L64 127z"/>
<path style="fill:#dde4fb; stroke:none;" d="M22 128C28.6867 130.806 38.7674 129 46 129C39.3133 126.194 29.2326 128 22 128z"/>
<path style="fill:#90e0f7; stroke:none;" d="M65 128L66 129L65 128M71 128L71 137C72.2561 134.006 72.2561 130.994 71 128z"/>
<path style="fill:#21c2f0; stroke:none;" d="M72 128C72.0003 131.113 71.1788 135.972 73.6034 138.397C76.1882 140.981 81.6768 140 85 140L85 128L82 128L82 138C75.5204 137.51 74.0715 134.053 74 128L72 128z"/>
<path style="fill:#c7effb; stroke:none;" d="M74 128L74 136C75.1614 133.23 75.1614 130.77 74 128z"/>
<path style="fill:#90e0f7; stroke:none;" d="M89 128L90 129L89 128z"/>
<path style="fill:#9ee4f8; stroke:none;" d="M105 128L106 129L105 128z"/>
<path style="fill:#21c2f0; stroke:none;" d="M113 140L113 138C109.328 137.72 102.682 133.196 109.144 130.644C111.055 129.889 113.118 130.574 115 131L115 133L108 134L108 136C110.366 135.972 113.582 136.312 115.377 134.397C119.383 130.125 112.281 127.686 109.019 128.153C104.432 128.81 102.148 134.925 105.603 138.397C107.48 140.282 110.576 139.971 113 140z"/>
<path style="fill:#abe8f9; stroke:none;" d="M115 128L116 129L115 128z"/>
<path style="fill:#75d9f5; stroke:none;" d="M120 128L121 129L120 128z"/>
<path style="fill:#21c2f0; stroke:none;" d="M128 135L128 137C124.96 137.724 122.122 137.974 119 138L119 140C121.901 140 126.148 140.696 128.677 138.972C135.096 134.597 125.107 132.037 122 132L122 130L129 130L129 128C127.162 128.005 115.393 128.698 120.623 132.992C122.381 134.435 125.842 134.478 128 135z"/>
<path style="fill:#90e0f7; stroke:none;" d="M129 128L129 131C129.696 129.446 129.696 129.554 129 128z"/>
<path style="fill:#82dcf6; stroke:none;" d="M88 129L89 130L88 129z"/>
<path style="fill:#9de4f8; stroke:none;" d="M104 129L105 130L104 129z"/>
<path style="fill:#abe8f9; stroke:none;" d="M116 129L117 130L116 129z"/>
<path style="fill:#58d1f3; stroke:none;" d="M92 130C93.7691 130.779 95.0359 130.912 97 131C95.231 130.221 93.9641 130.088 92 130M107 130C109.332 130.985 111.457 130.981 114 131C111.668 130.015 109.543 130.019 107 130M122 130C124.332 130.985 126.457 130.981 129 131C126.668 130.015 124.543 130.019 122 130z"/>
<path style="fill:#c7effb; stroke:none;" d="M87 131L87 137C87.9511 134.715 87.9511 133.285 87 131M103 131L103 137C103.951 134.715 103.951 133.285 103 131z"/>
<path style="fill:#90e0f7; stroke:none;" d="M106 131L106 137C106.951 134.715 106.951 133.285 106 131z"/>
<path style="fill:#ffffff; stroke:none;" d="M107 131L107 133L114 133L114 131L107 131z"/>
<path style="fill:#4bcdf2; stroke:none;" d="M114.333 131.667C114.278 131.722 114.222 132.778 114.667 132.333C114.722 132.278 114.778 131.222 114.333 131.667z"/>
<path style="fill:#d5f3fc; stroke:none;" d="M117 131L117 133C118.635 132.455 118.455 132.635 119 131L117 131z"/>
<path style="fill:#90e0f7; stroke:none;" d="M90 132L90 137C90.8299 134.97 90.8299 134.03 90 132z"/>
<path style="fill:#c7effb; stroke:none;" d="M107 133L107 136C107.696 134.446 107.696 134.554 107 133z"/>
<path style="fill:#59d1f3; stroke:none;" d="M108 133C109.769 133.779 111.036 133.912 113 134C111.231 133.221 109.964 133.088 108 133z"/>
<path style="fill:#90e0f7; stroke:none;" d="M119 133L120 134L119 133z"/>
<path style="fill:#b9ebfa; stroke:none;" d="M116 134L117 135L116 134z"/>
<path style="fill:#abe8f9; stroke:none;" d="M120 134L121 135L120 134z"/>
<path style="fill:#58d1f3; stroke:none;" d="M121 134C123.052 134.874 124.747 134.953 127 135C124.948 134.126 123.253 134.047 121 134z"/>
<path style="fill:#90e0f7; stroke:none;" d="M65 135L66 136L65 135M64 136L65 137L64 136z"/>
<path style="fill:#59d1f3; stroke:none;" d="M56 137C58.3316 137.985 60.4567 137.981 63 138C60.6684 137.015 58.5433 137.019 56 137z"/>
<path style="fill:#74d8f5; stroke:none;" d="M67 137L68 138L67 137z"/>
<path style="fill:#59d1f3; stroke:none;" d="M76 137C78.0521 137.874 79.7472 137.953 82 138C79.9479 137.126 78.2528 137.047 76 137M91 137C93.0521 137.874 94.7472 137.953 97 138C94.9479 137.126 93.2528 137.047 91 137M107 137C109.052 137.874 110.747 137.953 113 138C110.948 137.126 109.253 137.047 107 137z"/>
<path style="fill:#c7effb; stroke:none;" d="M113 137L113 140C113.696 138.446 113.696 138.554 113 137z"/>
<path style="fill:#59d1f3; stroke:none;" d="M119 137C121.613 138.098 124.165 137.993 127 138C124.387 136.902 121.835 137.007 119 137z"/>
<path style="fill:#82dcf6; stroke:none;" d="M88 138L89 139L88 138z"/>
<path style="fill:#9de4f8; stroke:none;" d="M100 138L101 139L100 138z"/>
<path style="fill:#90e0f7; stroke:none;" d="M104 138L105 139L104 138z"/>
<path style="fill:#abe8f9; stroke:none;" d="M65 139L66 140L65 139z"/>
<path style="fill:#90e0f7; stroke:none;" d="M89 139L90 140L89 139z"/>
<path style="fill:#b9ebfa; stroke:none;" d="M99 139L100 140L99 139z"/>
<path style="fill:#9de4f8; stroke:none;" d="M105 139L106 140L105 139z"/>
<path style="fill:#c7effb; stroke:none;" d="M54 140C56.6127 141.098 59.1645 140.993 62 141C59.3873 139.902 56.8355 140.007 54 140M77 140C79.3316 140.985 81.4566 140.981 84 141C81.6684 140.015 79.5433 140.019 77 140M92 140C93.769 140.779 95.0359 140.912 97 141C95.231 140.221 93.9641 140.088 92 140M108 140C109.769 140.779 111.036 140.912 113 141C111.231 140.221 109.964 140.088 108 140M119 140C121.613 141.098 124.165 140.993 127 141C124.387 139.902 121.835 140.007 119 140z"/>
</svg>
